<mxfile host="Electron" modified="2024-07-17T17:42:45.898Z" agent="Mozilla/5.0 (Macintosh; Intel Mac OS X 10_15_7) AppleWebKit/537.36 (KHTML, like Gecko) draw.io/23.1.5 Chrome/120.0.6099.109 Electron/28.1.0 Safari/537.36" etag="ADTdRKGyLd0KmWY6EW_9" version="23.1.5" type="device" pages="2">
  <diagram name="README" id="lyyAExfp4SkQCK4VVHYF">
    <mxGraphModel dx="963" dy="729" grid="1" gridSize="10" guides="1" tooltips="1" connect="1" arrows="1" fold="1" page="1" pageScale="1" pageWidth="850" pageHeight="1100" math="0" shadow="0">
      <root>
        <mxCell id="0" />
        <mxCell id="1" parent="0" />
        <mxCell id="1wF9nVpsUf9EVKvvm885-2" value="&lt;h1&gt;README&lt;/h1&gt;&lt;p&gt;在爬虫项目中, 为了省钱, 我做了两个重要决定:&lt;/p&gt;&lt;p&gt;&lt;/p&gt;&lt;ol&gt;&lt;li&gt;我决定把整个 Git repo 开源, 这样就能免费使用 GitHub Action, 让 CI Job 不仅仅是做单元测试, 而是去运行我的爬虫程序.&amp;nbsp;&lt;/li&gt;&lt;li&gt;使用 sqlite 作为爬虫数据库而不是 DynamoDB 或 RDS.&lt;/li&gt;&lt;/ol&gt;&lt;span style=&quot;background-color: initial;&quot;&gt;当然, 把 GitHub Action 当成一个 Batch Job 容器应用, 或是 AWS Lambda 定时任务使用的时候还有很多细节问题. 例如如何防止多个 CI Job 同时对同一个任务进行写操作 (并发冲突控制), 如何让每个 CI 任务运行的时间不要太长. 当任务出现死锁 (由于程序 bug 或是目标网站挂了导致任务无法进行下去) 时如何防止无限重试.&lt;/span&gt;&lt;br&gt;&lt;p&gt;&lt;/p&gt;&lt;p&gt;还有, sqlite 不是一个支持网络的数据库, 而且它不支持多个 worker 同时对一个数据库进行写操作. 那么 sqlite 数据库文件应该如何保存也是一个问题.&lt;/p&gt;&lt;p&gt;对于以上这些问题, 这个 Diagram 给出了我的详细解决方案, 以及架构设计.&lt;/p&gt;" style="text;html=1;spacing=5;spacingTop=-20;whiteSpace=wrap;overflow=hidden;rounded=0;strokeColor=default;" parent="1" vertex="1">
          <mxGeometry x="80" y="120" width="680" height="320" as="geometry" />
        </mxCell>
      </root>
    </mxGraphModel>
  </diagram>
  <diagram id="H0vgQcq-DBLnavE36G5J" name="Architecture">
    <mxGraphModel dx="688" dy="521" grid="1" gridSize="10" guides="1" tooltips="1" connect="1" arrows="1" fold="1" page="1" pageScale="1" pageWidth="850" pageHeight="1100" math="0" shadow="0">
      <root>
        <mxCell id="0" />
        <mxCell id="1" parent="0" />
        <mxCell id="e-J0VyOuMt3WZX3phJr1-5" value="" style="rounded=0;whiteSpace=wrap;html=1;fillColor=none;" parent="1" vertex="1">
          <mxGeometry x="800" y="320" width="480" height="560" as="geometry" />
        </mxCell>
        <mxCell id="Y8Ti6la-yZSVtWF-0I6a-11" value="" style="rounded=0;whiteSpace=wrap;html=1;fillColor=none;" parent="1" vertex="1">
          <mxGeometry x="480" y="320" width="240" height="560" as="geometry" />
        </mxCell>
        <mxCell id="Y8Ti6la-yZSVtWF-0I6a-10" value="" style="rounded=0;whiteSpace=wrap;html=1;fillColor=none;" parent="1" vertex="1">
          <mxGeometry x="120" y="320" width="240" height="360" as="geometry" />
        </mxCell>
        <mxCell id="Y8Ti6la-yZSVtWF-0I6a-1" value="GitHub" style="dashed=0;outlineConnect=0;html=1;align=center;labelPosition=center;verticalLabelPosition=bottom;verticalAlign=top;shape=mxgraph.weblogos.github" parent="1" vertex="1">
          <mxGeometry x="120" y="320" width="40" height="40" as="geometry" />
        </mxCell>
        <mxCell id="Y8Ti6la-yZSVtWF-0I6a-3" value="Ubuntu Runtime&#xa;" style="shape=image;verticalLabelPosition=bottom;labelBackgroundColor=default;verticalAlign=top;aspect=fixed;imageAspect=0;image=data:image/png,iVBORw0KGgoAAAANSUhEUgAAAQAAAAEACAMAAABrrFhUAAAAeFBMVEUAAAD/VyL/VyH/VyL/ViL/VyH/VyH/VyL/VyL/WCD/VyL/VyL/VyH/VyL/VyL/VyH/VyH/ViL/VyL/VSX/WCL/VyH/VyL/VyL/ViL/ViL/VyH/VyL/VyL/ViH/VyL/VyL/VyL/VyH/VyL/VyL/VyH/VyL/VyL/VyISLrBjAAAAJ3RSTlMA+VQGEi/tuY8b53NFwfJjKDhdDSLO1OCyrZnayT6oWHuBTZ5qh6N5LhhrAAALKElEQVR42uTcCXbqMAwFUBlnnkMIAUKY6dv/Dv94yB9Ii2WTuPQuoKe0liXLwvQKwn2wWkYZvGj7dugkfS2LwxJ/Eav9F/oblCvc4R0d+hIKHwOywxdYBfIoMKzt6MWFKd4ljvTS3AgfWb9yGCQZPpa+7l5YZnjE9lXXQOHhMWt6SdUSjzrQKzrjYeIVs2ECBe3rbQOyBYAvHAQXKMleLRfKBvjSS2APRd6L7QI+VJ3olYQCN1+yGppDWfZSMXCGupI+BcdN5nl8uAab74Lr9XCZdW4o6W8t1MVkt8UpPqetwF3C7+gPUkDdmazl5uda4AMX6hVgSMlGMjn6GR4hSrpJwNCSdRaXVcbKYycwRGQXN2ihxGPVgT1BFulvchT0qWAGBo9sIfMtOBy9PaAhS1QpeIo+fMBQkyXewNSnAQcMO7JDAa493URQZ8sd0QU99idYAZ/2PHwE15puYigTtjTFcnC1pLMLbskSoQBXSDfLT3wYDMCV083h00YAURWhx01kjvikSVBrF/Akfx25ZJGtgUogzD7tAiAqweQTMxNmIVllB6YF3cjlp0wB/fpl2VCvyBRWjm2O4BELzuVA49D43E3drmbDd5v8JaBcDHgFjS8W78+o7cEjXOWayitpdHLT/8cGpODZEqmlgsil0VUr3HRDIQKmmP60z/C+bUijC+tHGlFnI0FARY33BJJG5zb405zuczLwtA79ScYZhtQlMRge34wqui/Wa4z0wiDDPcs5TcD18I/r8JyXXi7sOfF/gSB2J5qC6w0VL/876XcHe8VlfQs9UQczhybheirDKT64DnSPdLtklpQhcZj//L2E7isEuM5WDry4nuKdTAC2dUXWCRsMuAylwghsrUuPk4sR4qKqMcRzjPfIARHTg5zAA7yjpOdaYVhAA2po2Jb0iHmEn9KKnilQqF97HbRsQvpIl47TGIyZPZkdtIjzgt6T+CN1xhLu1WQooEf4czkU+5cl/iISepLQY39n4wht2S7/fx24sS/wL29BTyFTfmO2imBCs77OyyKsqHKKZH71h0oSSc9w1WnN7zGmN3qCRG9UNcWY9mRc6OmNa7sYkxeSab7usO4ZY/LJsFx79TkZxpRPEQD87ph5WUEmrQ1MqskWXJMPzp+gQIScn2LenIxxIjNzCj7GFDlkygZqOk53zLyAePR/7/qxAdJo6f+0bQSeQbhkxspcDsq9Xx3tc16GknpOMbv6EX6wbx/sTIafc4rzUg4l23ydAbCtIt6OGX4yCTwY05IBczCIgtjkzLcpFcoGHCvSUWwEjGjlZBOfCWkJN8KSI8ESPEtJeoqdFUtgBq6YdCWNBUtgCy7PIV1VIKZOBN3ElWjZQldirA80yYsm1XrS3pALHS6ZEENTQXwBdJRkxCmb7FAoI2gQjsmRDD6vMpMDJ3zSxo0myoQrW1rzRTTJqTgU4BMdGVR40BBOsf/OyKhOgC8mnhq/2fCezx58W2KRwoJ+ZO8AvgVxVJM344xtyQdiiWxIAEbmDZfEcrTodv6HZPQYqAHY9J5XMHYt5NRgiCp6EtmAaUc8lW+gE2tDLvRoiCznx+C82wTxrKD/yTe7XrFIzR7NF4dUoOet80p/yLOjJ3INFmZyvsV/xJtLf5O+BRNqvTdjfaG8wX2+S3+RtU2POBTgyehvbopBIqj+mw+y5zvsvpFKIBd4T1PSn0627AA/JAaKM7nGB0ROf9rY9JhbDZYr3TgpPnblVeE5PV2uuwtWW/Vht7lFDxk5Qq8Ukj4nc6YWPe3t6/XFNqw7pUTrGGhFDCTK1XQUql6SZhXdZ0MMJOpP26xUrwhWNIqVxjXNG/d5RhnZ85JRxz8Ql1DSSLoJLHrb/gpljcNaPHOlc5iQNJJLBDU7p/8Q3GZiM/05oCfdmYLEYffUSpWvvARkuW/snYlyokAQhnsc7ksuL7wVnfd/w91s1WZjEVeme4QG8j0AVshA09f/y4Ai5JFz+A6msSep1ZctIi1zzrRaWqJewEzP0ExFsYZPdkOS9v8Wh6bmcx2YuUMDi9jmvL2MmcyxiYYF4VBkrZ8REVsq80E63HzhQjQtOfLIBfu7AfOh3wDqI1AP/RGY/Etw8mGQ+iF0GIrFz8+nsNFkSOMAlcCcyafD7y6I1MAdUkmsGn5JjFgU5WR3qVkU9QGAWhbPBl0W3/go34/tiBojPky8NbaBP1gOsjmaM2qObhQC4Wt0ebHtccG/Pa4RCgXXAYlcoYhIIzI7pdg8A65CUVKGpOYjGpICKFzdv78YwZhcDP+QB81ByesIBiU9+EreclS2ETn6zwjRo7JTH5ZOG8Fk++xNbsMDxSjH5T84xq0WJmJWrpdXhcNtszITHPKiuaIx2pWZv4n136WpSwlN5J2X/XncsZ5J4fYvaGtE0sIhLU7SxQQHujhZLBhJm/exOntmIGjb6/J0oJAkD7832PX5QqHZSTDPQaE5jUFCI1R4yhGIqMy6F1GBkImy9wcZSUanFyGlCH4zbCGlyUtp/YipjUROTw5cUDHqT1AR0jFIapYTF1Vd/8jqkognLqxMcIapgcp+y0Bae/Li6kOX18/7qsNtmBgs9CVgJsrRWGzgAsGNh8nKEkyQ0SQFmzY7+0LHZoeBtu+GePKaRkvLa70vH4yW7OOnhSo/18WSZLX1PKQ4f622gjdZbaV9NSSykZmt6boG30dntzd5w0W9psRphJabOm2pleRhulqCUXJC7NWY02Zruwuwpp68SnXJGkxjBbRCoC1UG/hab7f0eKh4mK/P4A2cKXWwmcLBSt7dxbch5cpMdnc/He3SsqCw0n3+1KZ1IeEtWAG6DnZSZJxq1jxeaeiKp6su5okEsg7mJ4qGOFzks39LvUAY/CAJkbHnrkgkng//I3I7213zUOlnpigIz4JXZHFX6u4bTPq5UwTcFNpwDNQfYglvRe7008+ccvpzaIl1c5QKThLejL/S/fouAoVmUUJ7pO9DB9iOZh3sptBcJTDEdrT2BErBoKbVwR04IF6bqPaqtPfRLMpK6BHbad8KikxO96XhZvX5iwtvZgES83fgTB43fXlFK1w2bvvmAv1gOy1bQbWphM73ku/Tjxx6ody2qsBajpnxAhkmz0NlBh3TNOrYmZ6zS1L4Srr8f7SQ0ANyjWgF4Uqa+atkcucDAXpm5JluBcW69fTAhj4IhfpgIw23gkSq/Rg5GfSBfV2u1jMw3QryEKtbTgrsCBUO4WNSyZUFzLASAwfAFnw293WpDBwA+Rn/+Og4NTDdCnKx1WTBS9ExNmDa6wtO2gVd+aM+Krhxkq/ofNHbEoqVfEU3VulzwkUEG5MLKzGx4bLsf2GVtnBH1PK2FS/T4242ndzvL8JIzKwVucLi0XLJC/DAFwbegQGqksgEj77kZakPhhoI5VrhyB56yrxUjPTIY0IUfN5RGJLGf3laKm0sWih1gBf2bUlwtUGQADvKeq0REtxXFcVB+n3J6BYn2uuGEW5PjivSru9LoTNqn/Y/JG8cmc5O96crQiKOyDpGFQwC377Mw/DmVfdDVVXe7VwfI9uX8MiWg34RAfPymYwU/jshR0RBlkNFv0aVQ7QH0f3/9APsQ7Y3PFAjy1zDKgeQMbSswDDMgAqJReBgGRCjXhKQHrmNADLOMRIbZiUAqY0hxmHVCIJnAtGRnAEgZ0mOzDYQAgjyEdcPHo4FAAnnCfIKMwxfQMSJmpLDN/5BgJOXQPk/aOaDaAWYFfF1DKVlGYY/EGHH2f5VGN7JHw4EJbBOhCgOu/Y/bsCJPtPEKME0QmIfDljkOSTEuPjU2cRl1BRkSfM9AI9WaCSxyOwhAAAAAElFTkSuQmCC;" parent="1" vertex="1">
          <mxGeometry x="200" y="480" width="80" height="80" as="geometry" />
        </mxCell>
        <mxCell id="Y8Ti6la-yZSVtWF-0I6a-4" value="Crawler" style="shape=image;verticalLabelPosition=bottom;labelBackgroundColor=default;verticalAlign=top;aspect=fixed;imageAspect=0;image=data:image/png,iVBORw0KGgoAAAANSUhEUgAAAgAAAAIACAMAAADDpiTIAAAAe1BMVEUAAAAAAAAAAAAAAAAAAAAAAAAAAAAAAAAAAAAAAAAAAAAAAAAAAAAAAAAAAAAAAAAAAAAAAAAAAAAAAAAAAAAAAAAAAAAAAAAAAAAAAAAAAAAAAAAAAAAAAAAAAAAAAAAAAAAAAAAAAAAAAAAAAAAAAAAAAAAAAAAAAAC9eBywAAAAKHRSTlMA+fOPDSsF1ggXxsyblNIkuaZ0Eunt41dqP1BlM7053IFGXohus3yt7Vtf0QAAGoVJREFUeNrs3NlO40AQheFyO4uXgKPshJESBl/U+z/hTCSkGZzQnWC1sV3/d113nOCtTgsAAAAAAAAAAAAAADAo36fL0zZRDEqyPS3TfS4tretSMWBlvZbvy1OnGDiX5vI9s5o//yi4cybfUPHPfzTKSh525Oc/Iu4oD/rNbf+oJAd5yKtiZGp5wJHf/+gkD1wFKq7/I+QqudOM+/9RKmdyn5VilFZyl5wLwEi5XO6RKkYqlTus+QcwWm4tYbVitA4SVuqV53o6EQzKZFo/65VCgvJbbxExSIdEm3IJ2WtD8iIYqJerBOwffwbg9z9gh8efA5bN679gwOb62VJCTlcfkTBgzbe6JwnZ6mdTwYBN9bOthDRvG3j+G7RJ85ZeQrRBhsZIj+HevX9tGHkAzPUYynpNAGz3GFyaEwDbPQZ3zgiA7R5DWREA2z0Gd7QeAOs9huRgOwD0GLTuPACT/aLcJMmmXOwn4tV+nh5DUHLsNgDVwv0bcotKvNrP02MIcVWHAcjSpJG/90w+xJqnxxBQzjoLQHVr2yiXi4jz9BgCVl0F4NdGb9hN5SLiPD0GP5d3E4BqozftchGJOk+PwS/tJABZqV8oM5G48/QYvNw6agDCv7izSNx5egx+hw4CUCXei1DkeXoMgb3/+AFYqMeTRJ6nxxDY+48egIlTDzeJPU+Pwb/3Hz0Ae/Xax56nx+Df+48egIV6LWLP02Pw7/1HD0CpXkXseXoM/r3/6AHYqNcm9jw9Bv/ef/QAJOqVxJ6nx+Df+ycAYspVALgEiCnNS8CGm0Ax5eomkMdAMeXqMZAXQaZeBNXakPIqOHkTM946fhUc/h+9kMjzfAz6Tx34GNT95+Ckks7nS70yX1n4HLya/8znYHnXL72LxJ1nIeTnF0IkK/QLRSYSdZ6VsD6shEm+8y9ttp9nKbTPS6Ei051/bbv9PGvhfV4LF8kLf3Gj/TzFkD4XQ0Sys/NXt9rPUw3rcTXsr/zJX95sP085tMfl0I/6dnGpbxdP/vp2+3nq4T2sh/cLB0Toq+kTQjgi5tX2ETEcEmX9kCiOiTMfAMsHRc44KJKjYgnAxfpQqCnFgcOibxwXP7dwXPyc4+IhBAAEAAQABAAEAAQABADtAoBRIwDGEQDjCIBxBMA4AmAcATCOABhHAIwjAMYRAOMIgHEEwDgCYBwBMI4AGMdCiDEEwDgCYBwBMI4AGEcAjCMAxv1h7253GoeBKAxP7DQBSpNmVWCL2qVQJOb+r3CRkBBxEqthvcT2Oc/vSJHQq+ajzJQBgGMA4BgAOAYAjgGAYwDgGAA4BgCOAYBjAOAYADgGAI4BgGMA4BgAOAYAjgGAYwDgGAA4BgCOAYBjAOAYADgGAI4BgPuRAFa2NuowtV15jgf8jdcAnL9vJAFcbQodVWyq8eOz/1nP0Cb/vjEEcHXUScdq9HgK5FhFEMBGPTZjx1Mwm+UDWBXqUawGx/PzP6BitXgAVr3s8HgKyC4eQK1ezfB4CqhZPACjXkYcfP4LyjAAbMsHwEvAPNldAngTOFNuN4F8DJwpt8dA2XgD5Yug/8ou/yJIqqNO2lYjx/NVcDDbGF4FSzX5ZZCtRo/nl0FhFDaKL4PerWxj1GEau/Icz6fBf2SaaL4OppgxAHAMABwDAMcAwDEAcAwAHAMAxwDAMQBwDAAcAwDHAMAxAHAMABwDAMf9AJnifgDifgB43A+AjvsBwEUwGMLRsG/IaTSMw6HfkdFwKMfD58tqPJwBzJFhALwEzJPdJYA3gTPldhPIx8CZcnsM5H6A2bgfgLgfgLgfgLgfgIZS/IcQihcDAMcAwDEAcAwAHAMAxwDAMQBwDAAcAwDHAMAxAHAMABwDAMcAwMHsB3DOF0TM+w24H8BzvnCi3m/A/QCe84US934D7gcYni+wyP+tnfsBhucLLO7BlggGQyIbDbMSWOSjbcuPhkU2HNpIYJEPty4/HBrZeLiRwCIfb19+PDydANrz2pj69iAeh9snY5pzywDyuwScC/3QlTKh7PRDceIlILebwE4/rScKKNf6qeNNYF6PgVa/eJNRb/qF5WNgivsBrIx70Z69jHjWnpcUXgRxP8Bl8/Kt0Z5u/AOgx7TyLu79BtwPcOG8/I327WTEnfbdiEjU+w24H+DS872qq5SBUl2/Y95vwP0Alyt36rq6JIBdKeljACJn1csuAa6TpI8BSGnUMXUT6DIZfAQwAPmlA3sZsdeBV0keA5AndXUyqlNXLcljAAd11VOvgmt1HSR1DMCqY9fKhPZOHWdJHQOo1fEgkx7yuwbAB3Ctjq14bNVxLYmDD+BRHX/EY6+OR0kcfACneR/qdW7vguAD6LTvNK+XThIHH8Ba+57F61n7biRx8AHcz7ura7XvXhL3l70zW08UCMJotaxRcAFRYxSDjlrv/4RzMxfTjWgVLVo2nMskfln4Y29Vp3sfgAJ1QrhLjDoFfDi9D4BCDcX8/RV8OB/rB3hWv7+6XQqSV5t0Pj0UShWH6TzdVPm/j5sBkOoT6IMf4Cn9/kvUCQDirTdRaKAmXhUDBKizFOwT6IEfYB8+/SzwuPOW2ECxqH5QJxLtE3DfD5CCLWPUUajz4NNj2T4B5/0A9v3+CVqRyPYJCGgM6bg1zLOvB7IiE+4TeH9rWMfNoVOwpEIrKuE+gfc3h3bcHj4CS+IRWqBi4T6B97eHSw8AzNGCuXShxPsDIH0IsJsEZNKVMu8fAqRPAuFLYWvUl3Sp1PsngdKXgQBXbM1ZulZOwDKwWz+A10FRGIOtdLGk634AQv97i5/vc75/z/0A2utbk7zSOynEh+CCH+BB/3sMRC5oxQYYSPEhOF8QUi5WiKukhMd8q+ajv8t2lue+H2yza+PzUSXxvF9FXgACcTAA/gIN418z/qrh6SdVqL1Nl2lDBqKYfN6v0hDE4V4A/rf5jeNWE4Di4kONPLsdFo9x3r+XlwD3ArBgnNZWeAN1auoOTlWLQSDVz+el4VwAdvrT2cE9pljnUEIjZYR1xoyNHiVuHuBcAFJGScwR61x9uEO+524HeeaAIQznAhDRa/biA9ZYhHCXcIE1onuviYT3k7sWAJ9xHPrTqsLrRgLWjL4DaV4p1wJQMjp3Jq2O98M9axYwEi6VcS0AjLLtHZocciCQR2gS0M/7f0AWrgUgRZ0rYw9A7YBEqRjV11eUPQt0LQBj1LlAE2GBBl7blGFBFwrsQRauBaBAnS3d9lLk7eXCJdkrtQRZOBaALzSYQRMnC+1nRrcGz4RrpRwLQEVfBUYW4t98hDoT+jKgAlE4FoCMvEDz0SCxmWsqn7zYzEAUjvkBFuSn+k0bxu1fnaDOYvADdOgHmJLH9Y3V5CwckZf3GepMBj9Ad36AUDV6300SuwrvM+qk5GmJCgc/QGd+gIA+5Z7bDc0ZOT9faBAMfoDOGkPWqLNi+AHtmgnGdAnNul+NIS9tDTuhzpzuBwzsbhk40LtPf/vVGvbS5tAz/dcf2e3P5KhT0P8Fzv1qDn1pe/gKdY50PVxsV3eg6HVHh361h78yAD4aBPSfK7Tbcx4xjp39XgXglUPAN8PfsUSd3C4AS2gkVqhT9moIeOUkcMOQ+K0Ip0YsaTSjJqRXk8BXLgNThsx/+txlYMQQEKS9WgZ27AcgV4OYnO3ugLwwNhJ/UWc8+AE68gOMGAX7HvXdwr7Sa4s6xeAH6MYPMCNXg9gfBhX1NnFGTcjgB+jED7A1v4TVFriz0ktWnKVwNfgBOuHCadrzlY13OkFOv8dYcE2ISwGoV4NwnkrhAxm/4GQNEsFXjbkUgIg4LtsXhf7y7hD+U9udkYNDAYhr1SC8YXzlt64JxYpVQKYEeSIcCkCArN3dcIkGp/YXjoe8YnVBlgCHAnBkXunnEVrDiGIpj3k54RrE4FAATg2bc4zmUB80yGKpHdNIfgIxOBQA9l95giZXeEx45h+51WtCxOBQAAjVIDrrzgQRJke5F866E4CcP9OKWiQgwRoRu4IQ5XhC/rJ3rstqwlAUTiQKCIoooh5aj3fX+z9hL9Op080tOzhtEvr97fTHGr7sxQk5Of4IwDgNYn5JVEx6howaxpkQW/BHgL3BbkuCOuGXjpVcNv2HmckelS34I4DJfusXiToyUC0lc2VdFElfHOy8MNIfAYy+uCzQRLluUECtt2giNftOZQv+CNB1GoR/WfSCrOtDPgGBs4Fc/1JtC94IkIHwYF74RCny2znbzKJ4en7ct2hBHoQONxAyYQneCPABSnJkvzvyuWnJuQLlQ1iCNwI8UCeNee9nfHKdmgkkajyEJXgjQN5Y5XvRS7SCMV8j0culbH51tARvBHiCoN0D5jc0zJXoYzpHI09hCd4IkIKg3wNqDiMSpTf9/0+Av0EFAqMHoicMuCvO9Lf1ymBvBIglCJweOIFNwJn+FGnNdZHeCCACEFg98ACTE2/6W3tltD8CRAkA0x6oJmCy3TGmP2X5/3OwIYy/58PoAZXDgDTSnf6UxJoC8EoAIdYTmPRA9gkjlpnJ9Ic8WXQq3C8BRJyji+1NNHAsYEjROFQ+SnSxsuYzgIcCCHFYcnvgImGM3PXt+1PKi7AL3wQQM2YPrDEEWTGnfyQswzsBmD2wxkD27k5/XwXg9MAag9k7O/39FUC7B/Z4AxdXp7/HApAeaNsXOsvWfw9ACHoOBV1KdHG3cPp7LYAQh7CvB6YTNLOsonrOqFq22ZL17fx8WnMAaEQC9PWATEs0UlRtOasCjYRuTn/fBSA9oIm8qvac6irRhJvT338ByM8DOhTn7pyHEjUcfPcfjQCkB3q5b/pyxncQnJ3+oxCA1wOL/pz04IFzOz+jE4DRAye9nDfpx/QfjQC6PVDp5qz8mP7jEUCvB9b6OfdeTP8xCaDRAydOzpMP039cAvT1QMrLmXow/UcmQHcPzGe8nLO5+9N/dAJ09EARc3PGhfPT3ysBIjWkB+SBn/MsXZ/+/ghwzEugzM/GPXA1yRkY7/sfF6GU4cKKG4M9EOB1qv/zEYt+lqCEkUnOKAQMbiZT+yV+sbBgWrgvwCbBC/nsHQMHUOTRLOdRgnLsXfzpBC++/vvfEHJegNfz1xwDd1AC05wBKE+txf9i/s8NcF0AlaCGXO1EK5kEYbsxzakKEGQmWvnyc/HbZoDjAqgEjZTXTPsiib15zpv2r/2qKgEA+wxwWwDy/DXGQDwBIZyZ55yFIExU++K30gCnBaD9r/E28ADlY0jOD1DWbc1vqQEuC0DWv9YYCEFIhuVMQAgbF7+9BjgsgEqgQXmNxYsjKLthOXegTOvNb7MB7gpAnr/eGFiA8Dk0ZwhCQBa/5QY4KwDtf623gVkBQjU0ZwVC+UfzW2+AqwKQ9a85Bs4gbKOhOaMtCOffi98FAxwVgD5/zbeBHIRgeM4AhPRX87thgJsCbBKYICUI0+E5pyDICQBnDHBSAJXgPczfkXOOGg4Z4KIAdP2bc3lHzgtcNsBBAVqe/yrYgolU78ipJJhM0rk1BrgngGp5/pGIdiuwuL8n5x0skkoJZY0BzgnQ/vx/kF0LbgMMz3lhLf4v4jv2GOCaAN3PXwjOGJAbXs7hHRDelBDCKgO+sXem22nDQBQeeTc24AWzJiGkIZ33f8Ke7gfZHjQgK1LQ979plLmS79XqmABaov7/iBXdQKWrnc+czm+ZAtwSwLX+zxsGGl3tbFQ6f9MCgH0KcEoAivVXdQNPutr5hFcQv7es26gAlwSgUH/OMNDpa2en0PktVYBDAlCoP2sYqPW18/vVzm+tAtwRAOH/CLK3GY6w1dfOdyrzA9isAGcEoND/mcPAk752vlCd324FuCIAxfoz3IDI9LUzE2NffusV4IgAbhr/6bmBQmc7i+HM74AC3BCAQv9nPy5c6mxnOfDD3VCAEwJQ7P+8TnrQ2c6tXD1wRQEuCIDR/xlZfaeznafezlBXFOCAAPTUP0eJXGc7lyiRuaIA+wWQMerPmK4N9LZTKGw25Cuggh6PJ4CaW3+1U3wLve1Me3vDtSjgFWQeTgA7Rv05Nu273nZ+J/aaMBVAvzL+cAKoGfXnPBA/19vOObHUzFQA/XMeTgAdo/6cpP6ht50fxIkTpgJoF/BoAogY9WeN0Qe97dwSS41MBdBWxQuAqD9n29ae2U6mxzyDHgUUIPFoAoBAT/2hYF7ohhJMr/oMdyiA9KqPJoDvjPpzctpSbztjRs/lKOAAEg8ngJOe+sNqWgEsiYsn7lDAKgKJhxMAnBn1Z6SJXG87c8ZiAEMBbyDzeAJoU/zHOdPmJVq97WzxkhXoUMA36PNwAoDorw0QIRAwJ+sjve2MiC3HTJJQ4C+6wf7/eAIA2NVrIdIwBo0CSPS2MyHWmtgsX2dpet76/QCqxPM0EGnd7CIXBBDtmjoVQRr69wL0kM3Ff/M9qoLA7CdgNVr7I/5FhP69AA1kFUoMqmBl1gSuh2svUX2+AtwXQIgSwypYm42BKVH7+9aMvAAueRI4zvr8us+NzAQuh2cCo5f3OhU4ingBJl4A7Du6frvDwuxU8Izo93dNGXsBXHJANdLA7GJQd0Q1DsDDC+CCdoUMJlwO3uCNdDnw8AIg9vkw2E6zIYRPCTy8AAgHSDHtlrBXpLHWB7otgBkyMLQpVMZyH+i0AA7IwMC2cBkXfKDLAuA5wOkPhjjpA10WQIkcpj8a5qQPdFgATAc4/eFQJ32gwwLgOsDJj4c76QPdFcABewhksNV+QYSTPtBZAQw4wDqJ38IZoQJzV8TQy1O1RT7QWQGUKBPk8BNCBdNdErVQrf2fB4zt8YGuCuBJEAdpCRUYuCaOqP1fGnt8oKsCmCHxCriaCl60XhRJ114iKazxgY4K4KDs6rOXbbkQn3JVLLFNdWeND3RTAEMOEPrQY8F37ZdFy/2ewBof6KYARhwgTWjuuvg5ENjlA1HijhM2NCYcIM3e3IMRGxjGPh8Y4SWCfcgyBpPQDpAmn+zJmI/BaWaaZGGFD4zZZxqPeMk7GIV2gDSpqUejjnCBzT6wYf/qlblLbPgOkKac6Nm4Voz+Otb7wKFOQRMSaYrAjAOkeZvo4cjDYE92wge+80+qbFBCnOA6n+4Af5JP9HRshcSZA54PfAKjnATfvuYoIxTGgE93gIMXRYlW4+PR8lfRAR/4LvAG+1pgj7SJIyD5fAf4k9cpn4+X7vWw3QdGcZNij5nSZ8MI0vl5hgNk5PWZDgHMiEUGPT4wDtMAJ4Jv6NoADSHmCc8BsjMsxvcLIEZWlOb7wGwu0BBBCwqEaIznhOkAubv3w/sFEBIl1DEfmD2jMUKGbM0wZzpAmrYngC67VwBZhxJzhh9K0qs+cI7GCHKGbM0gYm0OEHa1YJgulGCY0qB8AW0+MBZojEZVtgUaI9TkAKPDAoc4JncKIGW9F833gSEao0hAkWWAplhocYBPZYAjbO4TwIb3aDTfB6ZoimAJyuzN+VK+A6Q7v8ziPgEUvGfj+T7QXOba86ZjDBEwHCDx5SfY3yOAPRLQboD2geYFcAAWB4FGWNAOkNf5OS4AJcjiMYYBrg9M0QjiAEz2ZqQZMhwg8eWneGcKgJ4Vpd0A3weGaIJgD2yWJrKAiG91gG2Tohpde6sA2g7VWGwjpg80GwOLJdxA0gQ4NeF/vdEOkP7y08xvFcAcSWg3QPvApcGJoKBJ4DbycGIJVAnxd0iTuzq/7Lr5AtgRImMNA0lKPBmaPOOkBGEOt9NuZzgZIkwoM7QjOj+PNLtFABkhM+YwsKPWZZMpF4Nm2xbuJN+EVdoJ1EywCGPyCo6asP1cQq4AaHvGDwU1Upsz43ARoGZEl1bhJgdXSFQc4FN9ow7FiS+Ak7hR2WWs4AOP4LlkfdUBZiXezCrnCmC5umOfQ3bVB1bguaQmHCBv3bzYnrHHLOMJICuwx3lboBrP2TUf2IDnktM1BzhX92FLgT1KngBKHIhuynNPOL/iAwN3Ps7GOPfKxV83L7bR6MWurxwBfBv9AZHaMBDTAt6Ch3o/cBaBTMgJYdkR+zTqAmiwzzHjTEGH5NM3c/D0ySv8Qx1Bj0Kl89PXuh1UBXAgrp1THAYWxHuBge//I5zOAWJX72CAjjcDU+IAH2oC+MABSt5KVDD8XuDzMa2aFjxjJG0Ow6zozi8Tra94M5S4op31wH9xKCgBePRSUJ1feSK/yq8JIK+o5QTlYSAFj15q7naMDxxidaIFsFvz9tNmm2rktnqPXj7YG7KeR1agonEBRKHAISr2vpRX8Ohlz96L1R5xkO59TABvI0bjmEMfehjYgEcvS2TfXhWPfqAPWV8A0SHFYYIYrpEIC65W+tr0/sRP9+xu70KUCDtiKZEtT/H5jwZ/ORaDZ/9p3kztp977EDA59S3XNLwbOlD34UMAwTQx4Kz2r4zUH2ofAiZnf9uemsZE/WHhQ8C98H1WBEpsBXKR78fyIcAGiBhAcwruPE/jQ4AdEDGAJl7jTaxj+IkPAZZAxQCa/IwMpIUjHwJsgY4BNI1AJqKBX/gQYA2sGCATF8ii+OMwfAiwB34MkI+68o9T+hBgEdwYIJOXApUQdQ6/8SHAKtgxQCauhUr5Y/iDDwF20Y8BbJbzAEmCcAl/8SHAMogYoE72VgkcQVSbDP7iQ4B1EDGARbsp19hjXW5a+I8PAfZBxAA2+akpq3TdCdGt06psTpLv8yHAQgZigBX4EEBgVwxQw4cAW+nHACvwIYDCuhhA40OAzeztvGjHhwAKW2OAjA8BDmBnDPAhgObLxwAfAq7w1WOADwFX+OoxwIcAmi8fA3wIoPnqMcCHgB/t3TsKwzAQRVHbAqUQWCmyAxPI/lcYSBGQmudG8vB8zwoG/NNtPIp5BhABinkGEAGSdwYQAZJ3BhABinkGEAGKdwYQAZp1BhABmnUGEAEnOGcAEXCCcwYQAZp1BhQiYKoa7bfsLyJgqrzGvgGIgNFKsEN36VfFYKxDLGcS7Oex1+4EXC//5Hbz1AUDdI9cqP1rBy+AufL78/fMy+WaeTgCjtTv31tTgOvfzMP1n6OmfdseKcz39jfPHmceAAAAAAAAAAAAAABwb1+MMcviMXyMvgAAAABJRU5ErkJggg==;" parent="1" vertex="1">
          <mxGeometry x="220" y="420" width="40" height="40" as="geometry" />
        </mxCell>
        <mxCell id="Y8Ti6la-yZSVtWF-0I6a-5" value="DynamoDB&lt;br&gt;Status Tracker" style="sketch=0;points=[[0,0,0],[0.25,0,0],[0.5,0,0],[0.75,0,0],[1,0,0],[0,1,0],[0.25,1,0],[0.5,1,0],[0.75,1,0],[1,1,0],[0,0.25,0],[0,0.5,0],[0,0.75,0],[1,0.25,0],[1,0.5,0],[1,0.75,0]];outlineConnect=0;fontColor=#232F3E;fillColor=#C925D1;strokeColor=#ffffff;dashed=0;verticalLabelPosition=bottom;verticalAlign=top;align=center;html=1;fontSize=12;fontStyle=0;aspect=fixed;shape=mxgraph.aws4.resourceIcon;resIcon=mxgraph.aws4.dynamodb;" parent="1" vertex="1">
          <mxGeometry x="560" y="560" width="80" height="80" as="geometry" />
        </mxCell>
        <mxCell id="Y8Ti6la-yZSVtWF-0I6a-6" value="Sqlite Database" style="shape=cylinder3;whiteSpace=wrap;html=1;boundedLbl=1;backgroundOutline=1;size=15;" parent="1" vertex="1">
          <mxGeometry x="880" y="720" width="80" height="80" as="geometry" />
        </mxCell>
        <mxCell id="Y8Ti6la-yZSVtWF-0I6a-7" value="Laptop" style="verticalLabelPosition=bottom;html=1;verticalAlign=top;align=center;strokeColor=none;fillColor=#00BEF2;shape=mxgraph.azure.laptop;pointerEvents=1;" parent="1" vertex="1">
          <mxGeometry x="800" y="320" width="40" height="40" as="geometry" />
        </mxCell>
        <mxCell id="Y8Ti6la-yZSVtWF-0I6a-8" value="S3 Bucket&lt;br&gt;HTML" style="sketch=0;points=[[0,0,0],[0.25,0,0],[0.5,0,0],[0.75,0,0],[1,0,0],[0,1,0],[0.25,1,0],[0.5,1,0],[0.75,1,0],[1,1,0],[0,0.25,0],[0,0.5,0],[0,0.75,0],[1,0.25,0],[1,0.5,0],[1,0.75,0]];outlineConnect=0;fontColor=#232F3E;fillColor=#7AA116;strokeColor=#ffffff;dashed=0;verticalLabelPosition=bottom;verticalAlign=top;align=center;html=1;fontSize=12;fontStyle=0;aspect=fixed;shape=mxgraph.aws4.resourceIcon;resIcon=mxgraph.aws4.s3;" parent="1" vertex="1">
          <mxGeometry x="560" y="400" width="80" height="80" as="geometry" />
        </mxCell>
        <mxCell id="Y8Ti6la-yZSVtWF-0I6a-9" value="AWS" style="shape=image;verticalLabelPosition=bottom;labelBackgroundColor=default;verticalAlign=top;aspect=fixed;imageAspect=0;image=data:image/png,iVBORw0KGgoAAAANSUhEUgAAAGAAAABgCAMAAADVRocKAAABLFBMVEUAAAAlLz4PQUElLz4lLz4lLz0kLj3/mQAkLz4gMUH/mQAlLz4lLz4lLz4lLz4kLz4lLz0mLj0kLj0mMD0nJzolLz7/mQAlLz0kLz3/mQAlLz4lLj4kLz4mLzz/mAAkLUAoK0AlLz7/mQAlLj3/mQAkLz4kLj7/mQD/mQAlLz4lLz0lLz7/mQAlLz4lLz4kLz4lLj4iLj7/nQAkLz7/mQD/mQD/mQAlLz7/mQAlLz4lLz4eNDgkLz7/mQAlLz3/mgD/mQAlLz3/mQAkLz7/mQAkMD//mQAlLj7/mQAlLz7/mQAnKzwlLz7/mQD/mgD/mQD/mQD/mQD/mgAjLj4lLT7/mQD/lgD/mwD/lgAlLj7/mQD/mQD/mgAlLz3/mQD/mQD/mQD/mwAlLz7/mQBAhagrAAAAYnRSTlMA/QL687hV+0APBO/esaqdaS4iGQb27cWShIJkXCcjHBPp5r+Yd28Q8uXcz8Sijn57FgnY1bynl2xfMgnTr4h8ZFBEOCwf93JYRDIMyrafkHFfUUc9OhwVDeDay4tLSt7PHhYBy2IAAAVPSURBVGje7FVJi+pAEO4kJihqFnVQkogGMaDihgdRHwMig8h4cy5zmIv//0e8ruqkqjWPwcM75gO1qrrsWroWUaJEiRIlSpQo8b8R+F53k0w23e1umMtqrVarrSutpeBTF7SloJPRHcebJVZl0vWigXjC4L1xZ7xtMxNTyRg+q/mGFFT6LFiC+hxJM034BsPeCx2hdX/EtzofAb1hvT94GBJv1oFfYLCoy3gL9DjvBUzWcLBCmuIdGsiPRI498hdJHWbPN/iC0UdJ3e6F4cKWTlHcAZJxrnfMnOvkgjH+D9ieOmmGaRwt3YmkU8H4kDnpVU3FHNI30LU+gPkG0sv13u8Kp1xg5660LQyNCuLkJRfBMM9fpsbGeMsZyC1Q0/ygCxweKXQqwDmSSjGUmngB9JYuUDf9EQ7g5lV+mkLhC0OtoSMofgGcig37GPN99Uh+JTJeqgEbKPdlA5yjBMkmPgLf18SC6AuuYp9SmbycohuGjuQOyIYgY2MBFRKplEE1GJi/6I4hDMVrqGIzIrnG0v+grjphNjxWu6oOqajuOf9mouX44zS+9U0yQJWzw6ZQLZBSc4dwtKSZgbDcWCWqOIwgdERl1NQMrOgRfNXEezhbk+0gq1ibWtiyo4IN08fmYrCBgB5hjmNIZeoo+U+Lngc492Fa6uOUGr1gANHAR8iIW9a+CywFJAhHfRxVHKHhrISNrR9H59DdGLqBXvYIA5DVsqRd826pCg2nRYP90yy0K5i6yKQhqRu4ZI/gyJ9Z3m/WQYgr9J0pHrEPcQzAEW+qFc3MZwPUzA0VSY8mRlXULBx0RZzmBq8NrsSpWewDBVc9AmTYIf2V+MkHXRE/OFtnxNfvT77syABxu09wq02jyhYLyBTv52LRWFSjGFFPMDwMcajvsfmF5/YPJn+GZv4NBz2knGAPuFrTqb7v6yn8XvLQq4HFC3z5v03LCbFTYBPag7VsrxwfFiMoRYrH5xiBj21RAG86+ykj7xkX5HXm6iubYtL78sorapbymDNDPN1pRYNwq+t1EDUN6ZnaygMOEZFwihVWdCWoj5ZO0Bq2quMNHv7pPEXEsP62W/e9TQJhAMCfNdrrSJfYzKAXHSqhggbXlAASJ4F2lZCavsa+ZK3t5vP9v4NwXa5Q69YV/uT3z13S5nLPC/CUG2xtwL1LHlJ6zKkl+mTXs2+w1aymfmrBz0/8W8UfZj6I8JA+A/fqn/MrkHSeGMuex5munPz5UN4mtcoHGR4SyxD3/jXrPO7sHaSVWmfxP06qX6+BaTWasPXjRb3+8Rq4qzf1ev3tS0g4LX9hL8nokO+XF7BHqXlxXoJMrmq/fldqp1AoZDUNqaub5sJSHAlypw51TKBguV3Ij+CImCKDjcTOL5AeMpqo4UYAgoJIBjPIx3AYTqSZEO2MDiUsAgAn2mjLKeTORsQFRNpx3ojdhZxRROxDTLrBWG8lQC46y6UaLQoi+sAYCjIyzV5vYxT3qRft4pWft5JxQx+pWdq0rWgYIRMAI4hLwKk23iOWMz32dBGZ225c2mgzhITxGrlbb/LEetz5roYbhAqwKYGmprPnabgV6HQ1P7Cofp+1Cb9+TBARl7BjphBMIqbtjaUHYjG6/sASMWEdloBpI4qzPZdxCe4KTKtPnfGkK01VA6CkqtNOO3Sorcu4Q3b4bfqII9hHGmh4pBtnm9N5gC78x3wo4xGsMJlLH3XjgYYb80wdyPQkSOlbj3SI6veCg1NDO3AMYzww8TGy7UuQwWxFezLuJ1qDUQfyoE5CT3F1UxZFoolrc9FTvFH7DgqFQqFQONRfX9aBJFGbzW4AAAAASUVORK5CYII=;" parent="1" vertex="1">
          <mxGeometry x="480" y="320" width="40" height="40" as="geometry" />
        </mxCell>
        <mxCell id="Y8Ti6la-yZSVtWF-0I6a-12" value="Target Website" style="sketch=0;pointerEvents=1;shadow=0;dashed=0;html=1;strokeColor=none;labelPosition=center;verticalLabelPosition=bottom;verticalAlign=top;align=center;shape=mxgraph.mscae.enterprise.website_generic;fillColor=#7D7D7D;" parent="1" vertex="1">
          <mxGeometry x="200" y="160" width="80" height="80" as="geometry" />
        </mxCell>
        <mxCell id="Y8Ti6la-yZSVtWF-0I6a-13" style="edgeStyle=orthogonalEdgeStyle;rounded=0;orthogonalLoop=1;jettySize=auto;html=1;entryX=0.5;entryY=0.83;entryDx=0;entryDy=0;entryPerimeter=0;" parent="1" source="Y8Ti6la-yZSVtWF-0I6a-4" target="Y8Ti6la-yZSVtWF-0I6a-12" edge="1">
          <mxGeometry relative="1" as="geometry" />
        </mxCell>
        <mxCell id="Y8Ti6la-yZSVtWF-0I6a-14" style="edgeStyle=orthogonalEdgeStyle;rounded=0;orthogonalLoop=1;jettySize=auto;html=1;exitX=1;exitY=0.5;exitDx=0;exitDy=0;entryX=0;entryY=0.5;entryDx=0;entryDy=0;entryPerimeter=0;" parent="1" source="Y8Ti6la-yZSVtWF-0I6a-4" target="Y8Ti6la-yZSVtWF-0I6a-5" edge="1">
          <mxGeometry relative="1" as="geometry" />
        </mxCell>
        <mxCell id="Y8Ti6la-yZSVtWF-0I6a-16" value="S3 Bucket&lt;br&gt;DynamoDB Export" style="sketch=0;points=[[0,0,0],[0.25,0,0],[0.5,0,0],[0.75,0,0],[1,0,0],[0,1,0],[0.25,1,0],[0.5,1,0],[0.75,1,0],[1,1,0],[0,0.25,0],[0,0.5,0],[0,0.75,0],[1,0.25,0],[1,0.5,0],[1,0.75,0]];outlineConnect=0;fontColor=#232F3E;fillColor=#7AA116;strokeColor=#ffffff;dashed=0;verticalLabelPosition=bottom;verticalAlign=top;align=center;html=1;fontSize=12;fontStyle=0;aspect=fixed;shape=mxgraph.aws4.resourceIcon;resIcon=mxgraph.aws4.s3;" parent="1" vertex="1">
          <mxGeometry x="560" y="720" width="80" height="80" as="geometry" />
        </mxCell>
        <mxCell id="Y8Ti6la-yZSVtWF-0I6a-17" style="edgeStyle=orthogonalEdgeStyle;rounded=0;orthogonalLoop=1;jettySize=auto;html=1;exitX=0;exitY=0.75;exitDx=0;exitDy=0;exitPerimeter=0;entryX=0;entryY=0.5;entryDx=0;entryDy=0;entryPerimeter=0;" parent="1" source="Y8Ti6la-yZSVtWF-0I6a-5" target="Y8Ti6la-yZSVtWF-0I6a-16" edge="1">
          <mxGeometry relative="1" as="geometry">
            <Array as="points">
              <mxPoint x="520" y="620" />
              <mxPoint x="520" y="760" />
            </Array>
          </mxGeometry>
        </mxCell>
        <mxCell id="e-J0VyOuMt3WZX3phJr1-8" style="edgeStyle=orthogonalEdgeStyle;rounded=0;orthogonalLoop=1;jettySize=auto;html=1;exitX=1;exitY=0.5;exitDx=0;exitDy=0;entryX=0;entryY=0.5;entryDx=0;entryDy=0;" parent="1" source="e-J0VyOuMt3WZX3phJr1-1" target="e-J0VyOuMt3WZX3phJr1-6" edge="1">
          <mxGeometry relative="1" as="geometry" />
        </mxCell>
        <mxCell id="e-J0VyOuMt3WZX3phJr1-1" value="Python Program" style="shape=image;verticalLabelPosition=bottom;labelBackgroundColor=default;verticalAlign=top;aspect=fixed;imageAspect=0;image=data:image/png,iVBORw0KGgoAAAANSUhEUgAAAGAAAABgCAMAAADVRocKAAABBVBMVEUAAAAAeL//wQcCd73/vwj/wQcCd70Ad70Cd73/wQcCd70Cd73/wQYAeLz/wQcCd73/wQcCd73/wQcCd70CeL4Adb7/wAD/5AACd70Bd73/wQYAdrz/xgD/yQD/wQf/wgf/wQcBd77/wQf/wQf/wQgCd70Cd7wCd73/wQcDd73/wAz/wgQAeMEAdLoCd73/wQcBdr3/wgb/wQcCeLz/wQj/wQYDdr3/wAcEd77/wQn/wQb/vwkAd7//xAoAc74AeKv/wQf/wQf/wgYCd73/wQf/wQgCdr7/wQgDdr3/wAf/wQj/wwYDd70Ddr3/wQf/wAf/wAYCd7wDeL4Dd77/wgUCd73/wQcnWjN/AAAAVXRSTlMAIN/gIP36B/fu1c58O/Lu5dvSlmYVDAHyr1coCQX229a7uLKop41/bVkVEQwF5721nYtzZFBMSUI5JxwaGRED6Kyin5eGa2BeTUEsxcTCjnZvU08yWCNU4AAAApBJREFUaN7t1+dy2kAUhuGPItGr6ZgOhoB7r3GLS+z0ZPf+LyUS+medXbSz0mQy1nMBemc4BzhCKBR6Ry6PD9YG6VIhaRZiXyfT4yp8lPg9ibG3MpUE/HFd2WakUg5+SDSZiPkBPlhjYuYptLWZTEx/DlMmVYGuJpMaQFeGWTYi1UqDUZLQVWKMrcHygZE+QpP9DVvu+1aSUSL/RUD2EekHXEMOIOAIA0EE9JNOIMqXjOLOrBZcwFE8CjjAjVnAAW6cQG7z+T5TMJmEPMCLNenjpw1m0wjwLMTaaca0AzcdiEQKTC/gEG5SIs18CexB4ICpqxKBImiJAlOWhOWGvzEH6ZipGwDoGPyNE5DumTr7eHzlS6sXNc2UfbkGkHUFbukRmExVzN6hetkV6IOSY6rSEVha3CUPyiNT05gmYKn1uFtNfqevlow1H52brj7mhDkIu0xge+M0sgVafZ9TLugzl9Q42ILQ+piT5t63NHMJsaMop617vh8Gm6DVr86yfS6QEhzqbiVnkp3WXS/PvSvD4wzMNmyHRa5mDI9btLEc5Iir+uHxfdWs2s/f4cpeQPnpCuzC8sCVGQtQcuQ7atzgynogbboCp8vfYnX78Ph/YO/QkKv7A9qEuhj6XNkIAs/0SaIqfw6BqulHwPgMoaYPgbzk+chpB4y7C8g0dQKp3u3sCnKX2ysCcWjKFQIOoJ0JOIDrX5NSUiGgafWQ42HgHwWM/fjiMBVg4BMsrQADZ7DU8wEHOl0/AuUVH9EVNA3pIX+Pzw/zzquGpiyXSkHXucFlhtA25jJP0LaIcrFyB/pei+LnX8AP8SEndR9q8MnJqOtan9HTAj5af5nt7fRTXSMVLX/by7bO6wiFQu/IX99zKbWBmXgLAAAAAElFTkSuQmCC;" parent="1" vertex="1">
          <mxGeometry x="880" y="560" width="80" height="80" as="geometry" />
        </mxCell>
        <mxCell id="e-J0VyOuMt3WZX3phJr1-2" style="edgeStyle=orthogonalEdgeStyle;rounded=0;orthogonalLoop=1;jettySize=auto;html=1;exitX=1;exitY=0.5;exitDx=0;exitDy=0;entryX=0;entryY=0.5;entryDx=0;entryDy=0;entryPerimeter=0;" parent="1" source="Y8Ti6la-yZSVtWF-0I6a-4" target="Y8Ti6la-yZSVtWF-0I6a-8" edge="1">
          <mxGeometry relative="1" as="geometry" />
        </mxCell>
        <mxCell id="e-J0VyOuMt3WZX3phJr1-3" style="edgeStyle=orthogonalEdgeStyle;rounded=0;orthogonalLoop=1;jettySize=auto;html=1;exitX=0;exitY=0.5;exitDx=0;exitDy=0;entryX=1;entryY=0.5;entryDx=0;entryDy=0;entryPerimeter=0;" parent="1" source="e-J0VyOuMt3WZX3phJr1-1" target="Y8Ti6la-yZSVtWF-0I6a-16" edge="1">
          <mxGeometry relative="1" as="geometry" />
        </mxCell>
        <mxCell id="e-J0VyOuMt3WZX3phJr1-4" style="edgeStyle=orthogonalEdgeStyle;rounded=0;orthogonalLoop=1;jettySize=auto;html=1;exitX=0;exitY=0.5;exitDx=0;exitDy=0;entryX=1;entryY=0.5;entryDx=0;entryDy=0;entryPerimeter=0;" parent="1" source="e-J0VyOuMt3WZX3phJr1-1" target="Y8Ti6la-yZSVtWF-0I6a-8" edge="1">
          <mxGeometry relative="1" as="geometry" />
        </mxCell>
        <mxCell id="e-J0VyOuMt3WZX3phJr1-6" value="OpenSearch&#xa;local container" style="shape=image;verticalLabelPosition=bottom;labelBackgroundColor=default;verticalAlign=top;aspect=fixed;imageAspect=0;image=data:image/svg+xml,PHN2ZyB4bWxucz0iaHR0cDovL3d3dy53My5vcmcvMjAwMC9zdmciIHZpZXdCb3g9IjAgMCA2NCA2NCIgZmlsbD0ibm9uZSI+PHBhdGggZmlsbD0iIzAwNWViOCIgZD0ibTYxLjczNzQgMjMuNWMtMS4yNDk2IDAtMi4yNjI2IDEuMDEzLTIuMjYyNiAyLjI2MjYgMCAxOC42MTg3LTE1LjA5MzUgMzMuNzEyMi0zMy43MTIyIDMzLjcxMjItMS4yNDk2IDAtMi4yNjI2IDEuMDEzLTIuMjYyNiAyLjI2MjZzMS4wMTMgMi4yNjI2IDIuMjYyNiAyLjI2MjZjMjEuMTE3OSAwIDM4LjIzNzQtMTcuMTE5NSAzOC4yMzc0LTM4LjIzNzQgMC0xLjI0OTYtMS4wMTMtMi4yNjI2LTIuMjYyNi0yLjI2MjZ6Ii8+PHBhdGggZmlsbD0iIzAwM2I1YyIgZD0ibTQ4LjA4MTQgMzhjMi4xNzU4LTMuNTQ5NSA0LjI4MDEtOC4yODIyIDMuODY2MS0xNC45MDc5LS44NTc2LTEzLjcyNDg1LTEzLjI4ODYtMjQuMTM2NzMtMjUuMDI2OS0yMy4wMDgzNjczLTQuNTk1My40NDE3MzIzLTkuMzEzOCA0LjE4NzQ2NzMtOC44OTQ2IDEwLjg5Njc2NzMuMTgyMiAyLjkxNTYgMS42MDkyIDQuNjM2NCAzLjkyODQgNS45NTk0IDIuMjA3NCAxLjI1OTMgNS4wNDM0IDIuMDU3IDguMjU4NCAyLjk2MTIgMy44ODM0IDEuMDkyMyA4LjM4ODEgMi4zMTkyIDExLjg1MDIgNC44NzA2IDQuMTQ5NSAzLjA1NzggNi45ODYxIDYuNjAyNiA2LjAxODQgMTMuMjI4M3oiLz48cGF0aCBmaWxsPSIjMDA1ZWI4IiBkPSJtMy45MTg2MSAxNGMtMi4xNzU4NSAzLjU0OTUtNC4yODAxMTYgOC4yODIyLTMuODY2MTE2OSAxNC45MDc5Ljg1NzU3ODkgMTMuNzI0OCAxMy4yODg2MDY5IDI0LjEzNjcgMjUuMDI2OTA2OSAyMy4wMDg0IDQuNTk1My0uNDQxOCA5LjMxMzgtNC4xODc1IDguODk0Ni0xMC44OTY4LS4xODIyLTIuOTE1Ni0xLjYwOTMtNC42MzY0LTMuOTI4NC01Ljk1OTQtMi4yMDc0LTEuMjU5My01LjA0MzQtMi4wNTctOC4yNTg0LTIuOTYxMi0zLjg4MzQtMS4wOTIzLTguMzg4MS0yLjMxOTItMTEuODUwMjYtNC44NzA2LTQuMTQ5NDgtMy4wNTc5LTYuOTg2MDItNi42MDI2LTYuMDE4MzMtMTMuMjI4M3oiLz48L3N2Zz4=;" parent="1" vertex="1">
          <mxGeometry x="1000" y="560" width="80" height="80" as="geometry" />
        </mxCell>
        <mxCell id="e-J0VyOuMt3WZX3phJr1-7" style="edgeStyle=orthogonalEdgeStyle;rounded=0;orthogonalLoop=1;jettySize=auto;html=1;entryX=0.5;entryY=0;entryDx=0;entryDy=0;entryPerimeter=0;" parent="1" source="e-J0VyOuMt3WZX3phJr1-1" target="Y8Ti6la-yZSVtWF-0I6a-6" edge="1">
          <mxGeometry relative="1" as="geometry" />
        </mxCell>
        <mxCell id="e-J0VyOuMt3WZX3phJr1-11" style="edgeStyle=orthogonalEdgeStyle;rounded=0;orthogonalLoop=1;jettySize=auto;html=1;entryX=1;entryY=0.5;entryDx=0;entryDy=0;" parent="1" source="e-J0VyOuMt3WZX3phJr1-10" target="e-J0VyOuMt3WZX3phJr1-6" edge="1">
          <mxGeometry relative="1" as="geometry" />
        </mxCell>
        <mxCell id="e-J0VyOuMt3WZX3phJr1-10" value="Python GUI App" style="shape=image;verticalLabelPosition=bottom;labelBackgroundColor=default;verticalAlign=top;aspect=fixed;imageAspect=0;image=data:image/png,iVBORw0KGgoAAAANSUhEUgAAAGAAAABgCAMAAADVRocKAAABBVBMVEUAAAAAeL//wQcCd73/vwj/wQcCd70Ad70Cd73/wQcCd70Cd73/wQYAeLz/wQcCd73/wQcCd73/wQcCd70CeL4Adb7/wAD/5AACd70Bd73/wQYAdrz/xgD/yQD/wQf/wgf/wQcBd77/wQf/wQf/wQgCd70Cd7wCd73/wQcDd73/wAz/wgQAeMEAdLoCd73/wQcBdr3/wgb/wQcCeLz/wQj/wQYDdr3/wAcEd77/wQn/wQb/vwkAd7//xAoAc74AeKv/wQf/wQf/wgYCd73/wQf/wQgCdr7/wQgDdr3/wAf/wQj/wwYDd70Ddr3/wQf/wAf/wAYCd7wDeL4Dd77/wgUCd73/wQcnWjN/AAAAVXRSTlMAIN/gIP36B/fu1c58O/Lu5dvSlmYVDAHyr1coCQX229a7uLKop41/bVkVEQwF5721nYtzZFBMSUI5JxwaGRED6Kyin5eGa2BeTUEsxcTCjnZvU08yWCNU4AAAApBJREFUaN7t1+dy2kAUhuGPItGr6ZgOhoB7r3GLS+z0ZPf+LyUS+medXbSz0mQy1nMBemc4BzhCKBR6Ry6PD9YG6VIhaRZiXyfT4yp8lPg9ibG3MpUE/HFd2WakUg5+SDSZiPkBPlhjYuYptLWZTEx/DlMmVYGuJpMaQFeGWTYi1UqDUZLQVWKMrcHygZE+QpP9DVvu+1aSUSL/RUD2EekHXEMOIOAIA0EE9JNOIMqXjOLOrBZcwFE8CjjAjVnAAW6cQG7z+T5TMJmEPMCLNenjpw1m0wjwLMTaaca0AzcdiEQKTC/gEG5SIs18CexB4ICpqxKBImiJAlOWhOWGvzEH6ZipGwDoGPyNE5DumTr7eHzlS6sXNc2UfbkGkHUFbukRmExVzN6hetkV6IOSY6rSEVha3CUPyiNT05gmYKn1uFtNfqevlow1H52brj7mhDkIu0xge+M0sgVafZ9TLugzl9Q42ILQ+piT5t63NHMJsaMop617vh8Gm6DVr86yfS6QEhzqbiVnkp3WXS/PvSvD4wzMNmyHRa5mDI9btLEc5Iir+uHxfdWs2s/f4cpeQPnpCuzC8sCVGQtQcuQ7atzgynogbboCp8vfYnX78Ph/YO/QkKv7A9qEuhj6XNkIAs/0SaIqfw6BqulHwPgMoaYPgbzk+chpB4y7C8g0dQKp3u3sCnKX2ysCcWjKFQIOoJ0JOIDrX5NSUiGgafWQ42HgHwWM/fjiMBVg4BMsrQADZ7DU8wEHOl0/AuUVH9EVNA3pIX+Pzw/zzquGpiyXSkHXucFlhtA25jJP0LaIcrFyB/pei+LnX8AP8SEndR9q8MnJqOtan9HTAj5af5nt7fRTXSMVLX/by7bO6wiFQu/IX99zKbWBmXgLAAAAAElFTkSuQmCC;" parent="1" vertex="1">
          <mxGeometry x="1120" y="560" width="80" height="80" as="geometry" />
        </mxCell>
        <mxCell id="lAUPu5idSmfBd7_elIxW-1" value="1" style="ellipse;whiteSpace=wrap;html=1;aspect=fixed;fillColor=#f5f5f5;fontColor=#333333;strokeColor=#666666;" parent="1" vertex="1">
          <mxGeometry x="350" y="310" width="20" height="20" as="geometry" />
        </mxCell>
        <mxCell id="lAUPu5idSmfBd7_elIxW-2" value="2" style="ellipse;whiteSpace=wrap;html=1;aspect=fixed;fillColor=#f5f5f5;fontColor=#333333;strokeColor=#666666;" parent="1" vertex="1">
          <mxGeometry x="710" y="310" width="20" height="20" as="geometry" />
        </mxCell>
        <mxCell id="lAUPu5idSmfBd7_elIxW-3" value="3" style="ellipse;whiteSpace=wrap;html=1;aspect=fixed;fillColor=#f5f5f5;fontColor=#333333;strokeColor=#666666;" parent="1" vertex="1">
          <mxGeometry x="1270" y="310" width="20" height="20" as="geometry" />
        </mxCell>
        <mxCell id="syJNiv3iJLUZpyI0ydqm-1" value="1.2" style="ellipse;whiteSpace=wrap;html=1;aspect=fixed;fillColor=#f5f5f5;fontColor=#333333;strokeColor=#666666;" vertex="1" parent="1">
          <mxGeometry x="250" y="410" width="20" height="20" as="geometry" />
        </mxCell>
        <mxCell id="syJNiv3iJLUZpyI0ydqm-2" value="1.1" style="ellipse;whiteSpace=wrap;html=1;aspect=fixed;fillColor=#f5f5f5;fontColor=#333333;strokeColor=#666666;" vertex="1" parent="1">
          <mxGeometry x="270" y="470" width="20" height="20" as="geometry" />
        </mxCell>
        <mxCell id="syJNiv3iJLUZpyI0ydqm-3" value="2.1" style="ellipse;whiteSpace=wrap;html=1;aspect=fixed;fillColor=#f5f5f5;fontColor=#333333;strokeColor=#666666;" vertex="1" parent="1">
          <mxGeometry x="630" y="390" width="20" height="20" as="geometry" />
        </mxCell>
        <mxCell id="syJNiv3iJLUZpyI0ydqm-4" value="2.2" style="ellipse;whiteSpace=wrap;html=1;aspect=fixed;fillColor=#f5f5f5;fontColor=#333333;strokeColor=#666666;" vertex="1" parent="1">
          <mxGeometry x="630" y="550" width="20" height="20" as="geometry" />
        </mxCell>
        <mxCell id="syJNiv3iJLUZpyI0ydqm-5" value="2.3" style="ellipse;whiteSpace=wrap;html=1;aspect=fixed;fillColor=#f5f5f5;fontColor=#333333;strokeColor=#666666;" vertex="1" parent="1">
          <mxGeometry x="630" y="710" width="20" height="20" as="geometry" />
        </mxCell>
        <mxCell id="syJNiv3iJLUZpyI0ydqm-6" value="3.1" style="ellipse;whiteSpace=wrap;html=1;aspect=fixed;fillColor=#f5f5f5;fontColor=#333333;strokeColor=#666666;" vertex="1" parent="1">
          <mxGeometry x="950" y="550" width="20" height="20" as="geometry" />
        </mxCell>
        <mxCell id="syJNiv3iJLUZpyI0ydqm-7" value="3.2" style="ellipse;whiteSpace=wrap;html=1;aspect=fixed;fillColor=#f5f5f5;fontColor=#333333;strokeColor=#666666;" vertex="1" parent="1">
          <mxGeometry x="950" y="710" width="20" height="20" as="geometry" />
        </mxCell>
        <mxCell id="syJNiv3iJLUZpyI0ydqm-8" value="3.3" style="ellipse;whiteSpace=wrap;html=1;aspect=fixed;fillColor=#f5f5f5;fontColor=#333333;strokeColor=#666666;" vertex="1" parent="1">
          <mxGeometry x="1070" y="550" width="20" height="20" as="geometry" />
        </mxCell>
        <mxCell id="syJNiv3iJLUZpyI0ydqm-9" value="3.4" style="ellipse;whiteSpace=wrap;html=1;aspect=fixed;fillColor=#f5f5f5;fontColor=#333333;strokeColor=#666666;" vertex="1" parent="1">
          <mxGeometry x="1190" y="550" width="20" height="20" as="geometry" />
        </mxCell>
      </root>
    </mxGraphModel>
  </diagram>
</mxfile>
